<mxfile host="app.diagrams.net" modified="2023-05-07T17:55:19.743Z" agent="Mozilla/5.0 (X11; Linux x86_64) AppleWebKit/537.36 (KHTML, like Gecko) Chrome/112.0.0.0 Safari/537.36" etag="p_zaZG3GrHngVOzMie0j" version="21.2.3" type="device" pages="2">
  <diagram name="Page-1" id="zapa7KV8a7RlVslvvhAN">
    <mxGraphModel dx="751" dy="806" grid="1" gridSize="10" guides="1" tooltips="1" connect="1" arrows="1" fold="1" page="1" pageScale="1" pageWidth="827" pageHeight="1169" math="0" shadow="0">
      <root>
        <mxCell id="0" />
        <mxCell id="1" parent="0" />
        <mxCell id="bD8-YBU_n-V9kNYaD_5w-16" style="edgeStyle=orthogonalEdgeStyle;rounded=0;orthogonalLoop=1;jettySize=auto;html=1;entryX=-0.034;entryY=0.496;entryDx=0;entryDy=0;entryPerimeter=0;" parent="1" source="bD8-YBU_n-V9kNYaD_5w-4" target="bD8-YBU_n-V9kNYaD_5w-15" edge="1">
          <mxGeometry relative="1" as="geometry">
            <mxPoint x="380" y="220" as="targetPoint" />
            <Array as="points" />
          </mxGeometry>
        </mxCell>
        <mxCell id="bD8-YBU_n-V9kNYaD_5w-17" value="Συμπληρώνει απαραίτητες &lt;br&gt;πληροφορίες και επιβεβαιώνει" style="edgeLabel;html=1;align=center;verticalAlign=middle;resizable=0;points=[];" parent="bD8-YBU_n-V9kNYaD_5w-16" vertex="1" connectable="0">
          <mxGeometry x="0.1359" y="1" relative="1" as="geometry">
            <mxPoint x="27" y="-26" as="offset" />
          </mxGeometry>
        </mxCell>
        <mxCell id="24fiLjjId7h0BQo2Pq5F-14" style="edgeStyle=orthogonalEdgeStyle;rounded=0;orthogonalLoop=1;jettySize=auto;html=1;entryX=-0.036;entryY=0.498;entryDx=0;entryDy=0;entryPerimeter=0;" edge="1" parent="1" source="bD8-YBU_n-V9kNYaD_5w-4" target="24fiLjjId7h0BQo2Pq5F-13">
          <mxGeometry relative="1" as="geometry">
            <Array as="points">
              <mxPoint x="240" y="220" />
              <mxPoint x="240" y="80" />
            </Array>
          </mxGeometry>
        </mxCell>
        <mxCell id="24fiLjjId7h0BQo2Pq5F-17" value="Επιλέγει δημιουργία&lt;br&gt;&amp;nbsp;νέου Event" style="edgeLabel;html=1;align=center;verticalAlign=middle;resizable=0;points=[];" vertex="1" connectable="0" parent="24fiLjjId7h0BQo2Pq5F-14">
          <mxGeometry x="0.3727" relative="1" as="geometry">
            <mxPoint x="25" y="-20" as="offset" />
          </mxGeometry>
        </mxCell>
        <mxCell id="24fiLjjId7h0BQo2Pq5F-15" style="edgeStyle=orthogonalEdgeStyle;rounded=0;orthogonalLoop=1;jettySize=auto;html=1;entryX=-0.022;entryY=0.503;entryDx=0;entryDy=0;entryPerimeter=0;" edge="1" parent="1" source="bD8-YBU_n-V9kNYaD_5w-4" target="bD8-YBU_n-V9kNYaD_5w-25">
          <mxGeometry relative="1" as="geometry">
            <Array as="points">
              <mxPoint x="240" y="220" />
              <mxPoint x="240" y="354" />
            </Array>
          </mxGeometry>
        </mxCell>
        <mxCell id="24fiLjjId7h0BQo2Pq5F-16" value="Επιλέγει Tags&amp;nbsp; και &lt;br&gt;δίνει επιβεβαίωση&amp;nbsp;" style="edgeLabel;html=1;align=center;verticalAlign=middle;resizable=0;points=[];" vertex="1" connectable="0" parent="24fiLjjId7h0BQo2Pq5F-15">
          <mxGeometry x="0.3955" relative="1" as="geometry">
            <mxPoint x="22" y="-24" as="offset" />
          </mxGeometry>
        </mxCell>
        <mxCell id="24fiLjjId7h0BQo2Pq5F-21" style="edgeStyle=orthogonalEdgeStyle;rounded=0;orthogonalLoop=1;jettySize=auto;html=1;entryX=-0.007;entryY=0.504;entryDx=0;entryDy=0;entryPerimeter=0;" edge="1" parent="1" source="bD8-YBU_n-V9kNYaD_5w-4" target="bD8-YBU_n-V9kNYaD_5w-42">
          <mxGeometry relative="1" as="geometry">
            <mxPoint x="390" y="870" as="targetPoint" />
            <Array as="points">
              <mxPoint x="240" y="220" />
              <mxPoint x="240" y="866" />
              <mxPoint x="380" y="866" />
            </Array>
          </mxGeometry>
        </mxCell>
        <mxCell id="24fiLjjId7h0BQo2Pq5F-22" value="Επιβεβαιώνει&lt;br&gt;ανάρτηση" style="edgeLabel;html=1;align=center;verticalAlign=middle;resizable=0;points=[];" vertex="1" connectable="0" parent="24fiLjjId7h0BQo2Pq5F-21">
          <mxGeometry x="0.8052" y="-3" relative="1" as="geometry">
            <mxPoint x="8" y="-19" as="offset" />
          </mxGeometry>
        </mxCell>
        <mxCell id="bD8-YBU_n-V9kNYaD_5w-4" value="&amp;nbsp;Χειριστής " style="shape=umlActor;verticalLabelPosition=bottom;verticalAlign=top;html=1;outlineConnect=0;" parent="1" vertex="1">
          <mxGeometry x="110" y="170" width="50" height="100" as="geometry" />
        </mxCell>
        <mxCell id="bD8-YBU_n-V9kNYaD_5w-11" style="rounded=0;orthogonalLoop=1;jettySize=auto;html=1;exitX=0.75;exitY=0.1;exitDx=0;exitDy=0;exitPerimeter=0;" parent="1" source="bD8-YBU_n-V9kNYaD_5w-8" edge="1">
          <mxGeometry relative="1" as="geometry">
            <mxPoint x="110" y="290" as="targetPoint" />
          </mxGeometry>
        </mxCell>
        <mxCell id="bD8-YBU_n-V9kNYaD_5w-8" value="Απλός Χρήστης" style="shape=umlActor;verticalLabelPosition=bottom;verticalAlign=top;html=1;outlineConnect=0;" parent="1" vertex="1">
          <mxGeometry x="30" y="360" width="30" height="60" as="geometry" />
        </mxCell>
        <mxCell id="bD8-YBU_n-V9kNYaD_5w-12" style="rounded=0;orthogonalLoop=1;jettySize=auto;html=1;exitX=0.5;exitY=0;exitDx=0;exitDy=0;exitPerimeter=0;" parent="1" source="bD8-YBU_n-V9kNYaD_5w-9" edge="1">
          <mxGeometry relative="1" as="geometry">
            <mxPoint x="140" y="290" as="targetPoint" />
            <mxPoint x="150" y="400" as="sourcePoint" />
          </mxGeometry>
        </mxCell>
        <mxCell id="bD8-YBU_n-V9kNYaD_5w-9" value="Ξεναγός" style="shape=umlActor;verticalLabelPosition=bottom;verticalAlign=top;html=1;outlineConnect=0;" parent="1" vertex="1">
          <mxGeometry x="110" y="360" width="30" height="60" as="geometry" />
        </mxCell>
        <mxCell id="bD8-YBU_n-V9kNYaD_5w-13" style="rounded=0;orthogonalLoop=1;jettySize=auto;html=1;exitX=0.25;exitY=0.1;exitDx=0;exitDy=0;exitPerimeter=0;" parent="1" source="bD8-YBU_n-V9kNYaD_5w-10" edge="1">
          <mxGeometry relative="1" as="geometry">
            <mxPoint x="160" y="290" as="targetPoint" />
          </mxGeometry>
        </mxCell>
        <mxCell id="bD8-YBU_n-V9kNYaD_5w-10" value="&lt;div&gt;Πολιτιστικός&lt;/div&gt;&lt;div&gt;Οργανισμός&lt;/div&gt;" style="shape=umlActor;verticalLabelPosition=bottom;verticalAlign=top;html=1;outlineConnect=0;" parent="1" vertex="1">
          <mxGeometry x="185" y="360" width="30" height="60" as="geometry" />
        </mxCell>
        <mxCell id="bD8-YBU_n-V9kNYaD_5w-20" style="rounded=0;orthogonalLoop=1;jettySize=auto;html=1;" parent="1" target="bD8-YBU_n-V9kNYaD_5w-19" edge="1">
          <mxGeometry relative="1" as="geometry">
            <mxPoint x="491" y="232.91000000000003" as="sourcePoint" />
          </mxGeometry>
        </mxCell>
        <mxCell id="bD8-YBU_n-V9kNYaD_5w-15" value="Οθόνη Δημιουργίας Event" style="shape=umlBoundary;whiteSpace=wrap;html=1;" parent="1" vertex="1">
          <mxGeometry x="400" y="180" width="100" height="80" as="geometry" />
        </mxCell>
        <mxCell id="bD8-YBU_n-V9kNYaD_5w-22" style="rounded=0;orthogonalLoop=1;jettySize=auto;html=1;entryX=0.546;entryY=-0.01;entryDx=0;entryDy=0;entryPerimeter=0;" parent="1" source="bD8-YBU_n-V9kNYaD_5w-19" target="bD8-YBU_n-V9kNYaD_5w-23" edge="1">
          <mxGeometry relative="1" as="geometry" />
        </mxCell>
        <mxCell id="EJSe9BqPJiRUVrL9kicL-1" style="edgeStyle=orthogonalEdgeStyle;rounded=0;orthogonalLoop=1;jettySize=auto;html=1;entryX=0.5;entryY=0;entryDx=0;entryDy=0;" parent="1" source="bD8-YBU_n-V9kNYaD_5w-19" target="bD8-YBU_n-V9kNYaD_5w-21" edge="1">
          <mxGeometry relative="1" as="geometry" />
        </mxCell>
        <mxCell id="bD8-YBU_n-V9kNYaD_5w-19" value="Φόρτωσε" style="ellipse;shape=umlControl;whiteSpace=wrap;html=1;" parent="1" vertex="1">
          <mxGeometry x="554" y="192.91" width="70" height="80" as="geometry" />
        </mxCell>
        <mxCell id="bD8-YBU_n-V9kNYaD_5w-21" value="Tags" style="ellipse;shape=umlEntity;whiteSpace=wrap;html=1;" parent="1" vertex="1">
          <mxGeometry x="661" y="259.91" width="80" height="80" as="geometry" />
        </mxCell>
        <mxCell id="bD8-YBU_n-V9kNYaD_5w-26" style="edgeStyle=none;shape=connector;rounded=0;orthogonalLoop=1;jettySize=auto;html=1;entryX=1;entryY=0.5;entryDx=0;entryDy=0;entryPerimeter=0;labelBackgroundColor=default;strokeColor=default;fontFamily=Helvetica;fontSize=11;fontColor=default;endArrow=classic;" parent="1" source="bD8-YBU_n-V9kNYaD_5w-23" target="bD8-YBU_n-V9kNYaD_5w-25" edge="1">
          <mxGeometry relative="1" as="geometry" />
        </mxCell>
        <mxCell id="bD8-YBU_n-V9kNYaD_5w-23" value="Εμφάνισε" style="ellipse;shape=umlControl;whiteSpace=wrap;html=1;" parent="1" vertex="1">
          <mxGeometry x="550" y="313.91" width="70" height="80" as="geometry" />
        </mxCell>
        <mxCell id="scwTmx69gwkTnfjNu9Hs-1" style="edgeStyle=orthogonalEdgeStyle;rounded=0;orthogonalLoop=1;jettySize=auto;html=1;entryX=0.44;entryY=0.055;entryDx=0;entryDy=0;entryPerimeter=0;" edge="1" parent="1" source="bD8-YBU_n-V9kNYaD_5w-25" target="bD8-YBU_n-V9kNYaD_5w-30">
          <mxGeometry relative="1" as="geometry" />
        </mxCell>
        <mxCell id="bD8-YBU_n-V9kNYaD_5w-25" value="Οθόνη επιλογής tags" style="shape=umlBoundary;whiteSpace=wrap;html=1;" parent="1" vertex="1">
          <mxGeometry x="390" y="313.91" width="100" height="80" as="geometry" />
        </mxCell>
        <mxCell id="bD8-YBU_n-V9kNYaD_5w-33" style="edgeStyle=none;shape=connector;rounded=0;orthogonalLoop=1;jettySize=auto;html=1;labelBackgroundColor=default;strokeColor=default;fontFamily=Helvetica;fontSize=11;fontColor=default;endArrow=classic;entryX=0.557;entryY=0;entryDx=0;entryDy=0;entryPerimeter=0;" parent="1" source="bD8-YBU_n-V9kNYaD_5w-30" target="bD8-YBU_n-V9kNYaD_5w-41" edge="1">
          <mxGeometry relative="1" as="geometry">
            <mxPoint x="679.6089631038601" y="751.0090573671454" as="targetPoint" />
          </mxGeometry>
        </mxCell>
        <mxCell id="bD8-YBU_n-V9kNYaD_5w-35" value="ναι" style="edgeLabel;html=1;align=center;verticalAlign=middle;resizable=0;points=[];fontSize=11;fontFamily=Helvetica;fontColor=default;" parent="bD8-YBU_n-V9kNYaD_5w-33" vertex="1" connectable="0">
          <mxGeometry x="-0.4286" y="-1" relative="1" as="geometry">
            <mxPoint x="21" y="13" as="offset" />
          </mxGeometry>
        </mxCell>
        <mxCell id="cBhaB2CVJODFtWnFs59b-3" style="rounded=0;orthogonalLoop=1;jettySize=auto;html=1;strokeColor=#b85450;strokeWidth=2;fillColor=#f8cecc;" parent="1" source="bD8-YBU_n-V9kNYaD_5w-30" target="cBhaB2CVJODFtWnFs59b-2" edge="1">
          <mxGeometry relative="1" as="geometry" />
        </mxCell>
        <mxCell id="cBhaB2CVJODFtWnFs59b-4" value="Όχι" style="edgeLabel;html=1;align=center;verticalAlign=middle;resizable=0;points=[];fontSize=11;fontFamily=Helvetica;fontColor=default;" parent="cBhaB2CVJODFtWnFs59b-3" vertex="1" connectable="0">
          <mxGeometry x="-0.24" y="-2" relative="1" as="geometry">
            <mxPoint y="-22" as="offset" />
          </mxGeometry>
        </mxCell>
        <mxCell id="bD8-YBU_n-V9kNYaD_5w-30" value="Έλεγχος ορθών συμπληρωμένων πεδίων" style="ellipse;shape=umlControl;whiteSpace=wrap;html=1;" parent="1" vertex="1">
          <mxGeometry x="400" y="565.91" width="90" height="100" as="geometry" />
        </mxCell>
        <mxCell id="cBhaB2CVJODFtWnFs59b-8" style="edgeStyle=none;shape=connector;rounded=0;orthogonalLoop=1;jettySize=auto;html=1;entryX=0.5;entryY=0.15;entryDx=0;entryDy=0;entryPerimeter=0;labelBackgroundColor=default;strokeColor=#FF0000;fontFamily=Helvetica;fontSize=11;fontColor=default;endArrow=classic;strokeWidth=2;" parent="1" edge="1">
          <mxGeometry relative="1" as="geometry">
            <mxPoint x="646.0247690432875" y="499.98446922521543" as="sourcePoint" />
          </mxGeometry>
        </mxCell>
        <mxCell id="cBhaB2CVJODFtWnFs59b-9" value="&amp;nbsp;Όχι" style="edgeLabel;html=1;align=center;verticalAlign=middle;resizable=0;points=[];fontSize=11;fontFamily=Helvetica;fontColor=default;" parent="cBhaB2CVJODFtWnFs59b-8" vertex="1" connectable="0">
          <mxGeometry x="-0.3422" y="2" relative="1" as="geometry">
            <mxPoint as="offset" />
          </mxGeometry>
        </mxCell>
        <mxCell id="bD8-YBU_n-V9kNYaD_5w-43" style="edgeStyle=none;shape=connector;rounded=0;orthogonalLoop=1;jettySize=auto;html=1;labelBackgroundColor=default;strokeColor=default;fontFamily=Helvetica;fontSize=11;fontColor=default;endArrow=classic;" parent="1" source="bD8-YBU_n-V9kNYaD_5w-41" target="bD8-YBU_n-V9kNYaD_5w-42" edge="1">
          <mxGeometry relative="1" as="geometry" />
        </mxCell>
        <mxCell id="bD8-YBU_n-V9kNYaD_5w-41" value="Εμφάνισε" style="ellipse;shape=umlControl;whiteSpace=wrap;html=1;fontFamily=Helvetica;fontSize=11;fontColor=default;" parent="1" vertex="1">
          <mxGeometry x="406" y="709.91" width="70" height="80" as="geometry" />
        </mxCell>
        <mxCell id="24fiLjjId7h0BQo2Pq5F-3" style="edgeStyle=orthogonalEdgeStyle;rounded=0;orthogonalLoop=1;jettySize=auto;html=1;" edge="1" parent="1" source="bD8-YBU_n-V9kNYaD_5w-42" target="cBhaB2CVJODFtWnFs59b-12">
          <mxGeometry relative="1" as="geometry" />
        </mxCell>
        <mxCell id="bD8-YBU_n-V9kNYaD_5w-42" value="Οθόνη επιβεβαίωσης ανάρτησης εκδήλωσης" style="shape=umlBoundary;whiteSpace=wrap;html=1;" parent="1" vertex="1">
          <mxGeometry x="391" y="825.91" width="100" height="80" as="geometry" />
        </mxCell>
        <mxCell id="bD8-YBU_n-V9kNYaD_5w-49" value="Event" style="ellipse;shape=umlEntity;whiteSpace=wrap;html=1;" parent="1" vertex="1">
          <mxGeometry x="270" y="1103" width="70" height="65.91" as="geometry" />
        </mxCell>
        <mxCell id="6KCDrQtkcGSO_mX3G12f-1" style="edgeStyle=orthogonalEdgeStyle;rounded=0;orthogonalLoop=1;jettySize=auto;html=1;entryX=0.993;entryY=0.343;entryDx=0;entryDy=0;entryPerimeter=0;" edge="1" parent="1" source="bD8-YBU_n-V9kNYaD_5w-51" target="bD8-YBU_n-V9kNYaD_5w-49">
          <mxGeometry relative="1" as="geometry" />
        </mxCell>
        <mxCell id="bD8-YBU_n-V9kNYaD_5w-51" value="καταχώρεί" style="ellipse;shape=umlControl;whiteSpace=wrap;html=1;" parent="1" vertex="1">
          <mxGeometry x="406" y="1085.91" width="70" height="80" as="geometry" />
        </mxCell>
        <mxCell id="24fiLjjId7h0BQo2Pq5F-26" style="edgeStyle=orthogonalEdgeStyle;rounded=0;orthogonalLoop=1;jettySize=auto;html=1;entryX=0.58;entryY=-0.012;entryDx=0;entryDy=0;entryPerimeter=0;" edge="1" parent="1" source="bD8-YBU_n-V9kNYaD_5w-54" target="24fiLjjId7h0BQo2Pq5F-13">
          <mxGeometry relative="1" as="geometry">
            <Array as="points">
              <mxPoint x="810" y="1126" />
              <mxPoint x="810" y="20" />
              <mxPoint x="458" y="20" />
            </Array>
          </mxGeometry>
        </mxCell>
        <mxCell id="bD8-YBU_n-V9kNYaD_5w-54" value="Εμφάνισε" style="ellipse;shape=umlControl;whiteSpace=wrap;html=1;" parent="1" vertex="1">
          <mxGeometry x="648.0000000000001" y="1085.91" width="70" height="80" as="geometry" />
        </mxCell>
        <mxCell id="cBhaB2CVJODFtWnFs59b-6" style="edgeStyle=none;shape=connector;rounded=0;orthogonalLoop=1;jettySize=auto;html=1;labelBackgroundColor=default;strokeColor=#b85450;fontFamily=Helvetica;fontSize=11;fontColor=default;endArrow=classic;strokeWidth=2;entryX=0.55;entryY=-0.037;entryDx=0;entryDy=0;entryPerimeter=0;fillColor=#f8cecc;" parent="1" source="cBhaB2CVJODFtWnFs59b-2" target="24fiLjjId7h0BQo2Pq5F-1" edge="1">
          <mxGeometry relative="1" as="geometry">
            <mxPoint x="770" y="735.91" as="targetPoint" />
          </mxGeometry>
        </mxCell>
        <mxCell id="cBhaB2CVJODFtWnFs59b-2" value="Εμφάνισε&amp;nbsp;" style="ellipse;shape=umlControl;whiteSpace=wrap;html=1;fillColor=#f8cecc;strokeColor=#b85450;" parent="1" vertex="1">
          <mxGeometry x="642" y="572.95" width="72" height="85.91" as="geometry" />
        </mxCell>
        <mxCell id="cBhaB2CVJODFtWnFs59b-14" style="edgeStyle=none;shape=connector;rounded=0;orthogonalLoop=1;jettySize=auto;html=1;entryX=0.5;entryY=0.088;entryDx=0;entryDy=0;entryPerimeter=0;labelBackgroundColor=default;strokeColor=default;fontFamily=Helvetica;fontSize=11;fontColor=default;endArrow=classic;" parent="1" source="cBhaB2CVJODFtWnFs59b-12" edge="1">
          <mxGeometry relative="1" as="geometry">
            <mxPoint x="441" y="1092.95" as="targetPoint" />
          </mxGeometry>
        </mxCell>
        <mxCell id="cBhaB2CVJODFtWnFs59b-15" value="Ναι" style="edgeLabel;html=1;align=center;verticalAlign=middle;resizable=0;points=[];fontSize=11;fontFamily=Helvetica;fontColor=default;" parent="cBhaB2CVJODFtWnFs59b-14" vertex="1" connectable="0">
          <mxGeometry x="-0.3176" y="2" relative="1" as="geometry">
            <mxPoint x="1" as="offset" />
          </mxGeometry>
        </mxCell>
        <mxCell id="cBhaB2CVJODFtWnFs59b-16" style="edgeStyle=none;shape=connector;rounded=0;orthogonalLoop=1;jettySize=auto;html=1;labelBackgroundColor=default;strokeColor=#b85450;fontFamily=Helvetica;fontSize=11;fontColor=default;endArrow=classic;strokeWidth=2;fillColor=#f8cecc;" parent="1" target="bD8-YBU_n-V9kNYaD_5w-54" edge="1">
          <mxGeometry relative="1" as="geometry">
            <mxPoint x="816" y="1062.7500000000002" as="targetPoint" />
            <mxPoint x="467" y="995.9100000000001" as="sourcePoint" />
            <Array as="points">
              <mxPoint x="683" y="995.9100000000001" />
            </Array>
          </mxGeometry>
        </mxCell>
        <mxCell id="cBhaB2CVJODFtWnFs59b-17" value="Όχι" style="edgeLabel;html=1;align=center;verticalAlign=middle;resizable=0;points=[];fontSize=11;fontFamily=Helvetica;fontColor=default;" parent="cBhaB2CVJODFtWnFs59b-16" vertex="1" connectable="0">
          <mxGeometry x="-0.4141" y="-1" relative="1" as="geometry">
            <mxPoint x="3" y="-17" as="offset" />
          </mxGeometry>
        </mxCell>
        <mxCell id="cBhaB2CVJODFtWnFs59b-12" value="Επιβεβαιωσε ο χειριστής;" style="ellipse;shape=umlControl;whiteSpace=wrap;html=1;fontFamily=Helvetica;fontSize=11;fontColor=default;" parent="1" vertex="1">
          <mxGeometry x="406" y="959.91" width="70" height="80" as="geometry" />
        </mxCell>
        <mxCell id="24fiLjjId7h0BQo2Pq5F-1" value="Μήνυμα λάθους" style="shape=umlBoundary;whiteSpace=wrap;html=1;fillColor=#f8cecc;strokeColor=#b85450;" vertex="1" parent="1">
          <mxGeometry x="624" y="699.89" width="100" height="80" as="geometry" />
        </mxCell>
        <mxCell id="24fiLjjId7h0BQo2Pq5F-2" style="edgeStyle=none;shape=connector;rounded=0;orthogonalLoop=1;jettySize=auto;html=1;labelBackgroundColor=default;strokeColor=#b85450;fontFamily=Helvetica;fontSize=11;fontColor=default;endArrow=classic;strokeWidth=2;exitX=1.003;exitY=0.558;exitDx=0;exitDy=0;exitPerimeter=0;entryX=0.6;entryY=-0.016;entryDx=0;entryDy=0;entryPerimeter=0;fillColor=#f8cecc;" edge="1" parent="1" source="cBhaB2CVJODFtWnFs59b-2" target="bD8-YBU_n-V9kNYaD_5w-15">
          <mxGeometry relative="1" as="geometry">
            <mxPoint x="777" y="539.91" as="sourcePoint" />
            <mxPoint x="440" y="169.91" as="targetPoint" />
            <Array as="points">
              <mxPoint x="761" y="621.91" />
              <mxPoint x="761" y="409.91" />
              <mxPoint x="760" y="160" />
              <mxPoint x="550" y="160" />
              <mxPoint x="460" y="160" />
            </Array>
          </mxGeometry>
        </mxCell>
        <mxCell id="24fiLjjId7h0BQo2Pq5F-9" style="edgeStyle=orthogonalEdgeStyle;rounded=0;orthogonalLoop=1;jettySize=auto;html=1;entryX=0;entryY=0.5;entryDx=0;entryDy=0;entryPerimeter=0;exitX=1.057;exitY=0.5;exitDx=0;exitDy=0;exitPerimeter=0;" edge="1" parent="1" source="bD8-YBU_n-V9kNYaD_5w-51" target="bD8-YBU_n-V9kNYaD_5w-54">
          <mxGeometry relative="1" as="geometry">
            <mxPoint x="589" y="1125.91" as="sourcePoint" />
          </mxGeometry>
        </mxCell>
        <mxCell id="24fiLjjId7h0BQo2Pq5F-19" style="edgeStyle=orthogonalEdgeStyle;rounded=0;orthogonalLoop=1;jettySize=auto;html=1;entryX=-0.043;entryY=0.525;entryDx=0;entryDy=0;entryPerimeter=0;" edge="1" parent="1" source="24fiLjjId7h0BQo2Pq5F-13" target="24fiLjjId7h0BQo2Pq5F-18">
          <mxGeometry relative="1" as="geometry" />
        </mxCell>
        <mxCell id="24fiLjjId7h0BQo2Pq5F-13" value="Οθόνη Ιστορικού Events" style="shape=umlBoundary;whiteSpace=wrap;html=1;" vertex="1" parent="1">
          <mxGeometry x="400" y="40" width="100" height="80" as="geometry" />
        </mxCell>
        <mxCell id="24fiLjjId7h0BQo2Pq5F-20" style="rounded=0;orthogonalLoop=1;jettySize=auto;html=1;entryX=0.599;entryY=0.004;entryDx=0;entryDy=0;entryPerimeter=0;strokeWidth=1;" edge="1" parent="1" source="24fiLjjId7h0BQo2Pq5F-18" target="bD8-YBU_n-V9kNYaD_5w-15">
          <mxGeometry relative="1" as="geometry" />
        </mxCell>
        <mxCell id="24fiLjjId7h0BQo2Pq5F-18" value="Εμφάνισε" style="ellipse;shape=umlControl;whiteSpace=wrap;html=1;" vertex="1" parent="1">
          <mxGeometry x="550" y="38" width="70" height="80" as="geometry" />
        </mxCell>
        <mxCell id="24fiLjjId7h0BQo2Pq5F-27" value="&lt;b&gt;&lt;font style=&quot;font-size: 19px;&quot;&gt;Post Event&lt;/font&gt;&lt;/b&gt;" style="text;html=1;align=center;verticalAlign=middle;resizable=0;points=[];autosize=1;strokeColor=none;fillColor=none;" vertex="1" parent="1">
          <mxGeometry width="120" height="40" as="geometry" />
        </mxCell>
      </root>
    </mxGraphModel>
  </diagram>
  <diagram id="7a3dP99Z9bEB40UbDX--" name="Page-2">
    <mxGraphModel dx="751" dy="806" grid="1" gridSize="10" guides="1" tooltips="1" connect="1" arrows="1" fold="1" page="1" pageScale="1" pageWidth="850" pageHeight="1100" math="0" shadow="0">
      <root>
        <mxCell id="0" />
        <mxCell id="1" parent="0" />
        <mxCell id="rW0NodvPI0-UB6yzDcpD-5" style="edgeStyle=orthogonalEdgeStyle;rounded=0;orthogonalLoop=1;jettySize=auto;html=1;entryX=-0.03;entryY=0.475;entryDx=0;entryDy=0;entryPerimeter=0;" edge="1" parent="1">
          <mxGeometry relative="1" as="geometry">
            <mxPoint x="131.61" y="280" as="sourcePoint" />
            <mxPoint x="320.6100000000001" y="120" as="targetPoint" />
            <Array as="points">
              <mxPoint x="171.61" y="280" />
              <mxPoint x="171.61" y="120" />
            </Array>
          </mxGeometry>
        </mxCell>
        <mxCell id="rW0NodvPI0-UB6yzDcpD-6" style="edgeStyle=orthogonalEdgeStyle;rounded=0;orthogonalLoop=1;jettySize=auto;html=1;entryX=-0.013;entryY=0.494;entryDx=0;entryDy=0;entryPerimeter=0;" edge="1" parent="1">
          <mxGeometry relative="1" as="geometry">
            <mxPoint x="130.61" y="280" as="sourcePoint" />
            <mxPoint x="321.3600000000001" y="249.51999999999998" as="targetPoint" />
            <Array as="points">
              <mxPoint x="171.61" y="280" />
              <mxPoint x="171.61" y="250" />
            </Array>
          </mxGeometry>
        </mxCell>
        <mxCell id="rW0NodvPI0-UB6yzDcpD-9" value="Συμπληρώνει &lt;br&gt;απαραίτητες πληροφορίες" style="edgeLabel;html=1;align=center;verticalAlign=middle;resizable=0;points=[];" vertex="1" connectable="0" parent="rW0NodvPI0-UB6yzDcpD-6">
          <mxGeometry x="0.2635" y="-1" relative="1" as="geometry">
            <mxPoint x="13" y="14" as="offset" />
          </mxGeometry>
        </mxCell>
        <mxCell id="rW0NodvPI0-UB6yzDcpD-11" style="edgeStyle=orthogonalEdgeStyle;rounded=0;orthogonalLoop=1;jettySize=auto;html=1;entryX=-0.014;entryY=0.507;entryDx=0;entryDy=0;entryPerimeter=0;" edge="1" parent="1">
          <mxGeometry relative="1" as="geometry">
            <mxPoint x="130.61" y="280" as="sourcePoint" />
            <mxPoint x="321.2600000000002" y="470.55999999999995" as="targetPoint" />
            <Array as="points">
              <mxPoint x="171.61" y="280" />
              <mxPoint x="171.61" y="470" />
              <mxPoint x="321.61" y="470" />
            </Array>
          </mxGeometry>
        </mxCell>
        <mxCell id="rW0NodvPI0-UB6yzDcpD-12" value="Επιλέγει διαθέσιμα&lt;br style=&quot;border-color: var(--border-color); font-size: 12px;&quot;&gt;&lt;span style=&quot;font-size: 12px;&quot;&gt;&amp;nbsp;Tags&lt;/span&gt;" style="edgeLabel;html=1;align=center;verticalAlign=middle;resizable=0;points=[];" vertex="1" connectable="0" parent="rW0NodvPI0-UB6yzDcpD-11">
          <mxGeometry x="0.5474" y="-2" relative="1" as="geometry">
            <mxPoint x="-7" y="-19" as="offset" />
          </mxGeometry>
        </mxCell>
        <mxCell id="Sj3-l9j2Qv-C6Wem7DR2-8" style="edgeStyle=orthogonalEdgeStyle;rounded=0;orthogonalLoop=1;jettySize=auto;html=1;entryX=-0.003;entryY=0.492;entryDx=0;entryDy=0;entryPerimeter=0;" edge="1" parent="1">
          <mxGeometry relative="1" as="geometry">
            <mxPoint x="130.61" y="280" as="sourcePoint" />
            <mxPoint x="325.3600000000001" y="1059.36" as="targetPoint" />
            <Array as="points">
              <mxPoint x="171.61" y="280" />
              <mxPoint x="171.61" y="1059" />
            </Array>
          </mxGeometry>
        </mxCell>
        <mxCell id="Sj3-l9j2Qv-C6Wem7DR2-9" value="Επιλέγει &lt;br&gt;Template" style="edgeLabel;html=1;align=center;verticalAlign=middle;resizable=0;points=[];" vertex="1" connectable="0" parent="Sj3-l9j2Qv-C6Wem7DR2-8">
          <mxGeometry x="0.8457" y="-1" relative="1" as="geometry">
            <mxPoint x="10" y="-20" as="offset" />
          </mxGeometry>
        </mxCell>
        <mxCell id="Sj3-l9j2Qv-C6Wem7DR2-20" style="edgeStyle=orthogonalEdgeStyle;rounded=0;orthogonalLoop=1;jettySize=auto;html=1;entryX=0.005;entryY=0.506;entryDx=0;entryDy=0;entryPerimeter=0;" edge="1" parent="1">
          <mxGeometry relative="1" as="geometry">
            <mxPoint x="134.6099999999999" y="280.0344827586208" as="sourcePoint" />
            <mxPoint x="332.19000000000005" y="1170.48" as="targetPoint" />
            <Array as="points">
              <mxPoint x="172" y="280" />
              <mxPoint x="172" y="1171" />
            </Array>
          </mxGeometry>
        </mxCell>
        <mxCell id="Sj3-l9j2Qv-C6Wem7DR2-21" value="Συμπληρώνει κείμενο,&amp;nbsp;&lt;br&gt;αναρτά πολυμέσα &lt;br&gt;και επιβεβαιώνει την διαδικασία" style="edgeLabel;html=1;align=center;verticalAlign=middle;resizable=0;points=[];" vertex="1" connectable="0" parent="Sj3-l9j2Qv-C6Wem7DR2-20">
          <mxGeometry x="0.8035" y="-1" relative="1" as="geometry">
            <mxPoint x="25" y="-21" as="offset" />
          </mxGeometry>
        </mxCell>
        <mxCell id="Sj3-l9j2Qv-C6Wem7DR2-31" style="edgeStyle=orthogonalEdgeStyle;rounded=0;orthogonalLoop=1;jettySize=auto;html=1;entryX=-0.004;entryY=0.522;entryDx=0;entryDy=0;entryPerimeter=0;" edge="1" parent="1" target="VnYjJchZp2fNX4UqdwjW-86">
          <mxGeometry relative="1" as="geometry">
            <mxPoint x="124.6099999999999" y="280" as="sourcePoint" />
            <mxPoint x="320.70000000000005" y="1481.04" as="targetPoint" />
            <Array as="points">
              <mxPoint x="172" y="280" />
              <mxPoint x="172" y="1482" />
            </Array>
          </mxGeometry>
        </mxCell>
        <mxCell id="Sj3-l9j2Qv-C6Wem7DR2-32" value="Επιλέγει" style="edgeLabel;html=1;align=center;verticalAlign=middle;resizable=0;points=[];" vertex="1" connectable="0" parent="Sj3-l9j2Qv-C6Wem7DR2-31">
          <mxGeometry x="0.8623" y="-1" relative="1" as="geometry">
            <mxPoint x="13" y="-12" as="offset" />
          </mxGeometry>
        </mxCell>
        <mxCell id="VnYjJchZp2fNX4UqdwjW-14" value="" style="shape=umlActor;verticalLabelPosition=bottom;verticalAlign=top;html=1;outlineConnect=0;" vertex="1" parent="1">
          <mxGeometry x="82.61" y="230" width="50" height="100" as="geometry" />
        </mxCell>
        <mxCell id="Sj3-l9j2Qv-C6Wem7DR2-17" style="edgeStyle=orthogonalEdgeStyle;rounded=0;orthogonalLoop=1;jettySize=auto;html=1;" edge="1" parent="1" source="VnYjJchZp2fNX4UqdwjW-16" target="VnYjJchZp2fNX4UqdwjW-14">
          <mxGeometry relative="1" as="geometry">
            <Array as="points">
              <mxPoint x="72.61" y="225" />
              <mxPoint x="72.61" y="280" />
            </Array>
          </mxGeometry>
        </mxCell>
        <mxCell id="VnYjJchZp2fNX4UqdwjW-16" value="Ξεναγός" style="shape=umlActor;verticalLabelPosition=bottom;verticalAlign=top;html=1;outlineConnect=0;" vertex="1" parent="1">
          <mxGeometry x="22.61" y="200" width="30" height="49.5" as="geometry" />
        </mxCell>
        <mxCell id="Sj3-l9j2Qv-C6Wem7DR2-18" style="edgeStyle=orthogonalEdgeStyle;rounded=0;orthogonalLoop=1;jettySize=auto;html=1;" edge="1" parent="1" source="VnYjJchZp2fNX4UqdwjW-18" target="VnYjJchZp2fNX4UqdwjW-14">
          <mxGeometry relative="1" as="geometry">
            <Array as="points">
              <mxPoint x="72.61" y="335" />
              <mxPoint x="72.61" y="280" />
            </Array>
          </mxGeometry>
        </mxCell>
        <mxCell id="VnYjJchZp2fNX4UqdwjW-18" value="&lt;div&gt;Πολιτιστικός&lt;/div&gt;&lt;div&gt;Οργανισμός&lt;/div&gt;" style="shape=umlActor;verticalLabelPosition=bottom;verticalAlign=top;html=1;outlineConnect=0;" vertex="1" parent="1">
          <mxGeometry x="22.61" y="310" width="30" height="50" as="geometry" />
        </mxCell>
        <mxCell id="rW0NodvPI0-UB6yzDcpD-7" style="edgeStyle=orthogonalEdgeStyle;rounded=0;orthogonalLoop=1;jettySize=auto;html=1;entryX=-0.002;entryY=0.507;entryDx=0;entryDy=0;entryPerimeter=0;" edge="1" parent="1" source="VnYjJchZp2fNX4UqdwjW-20" target="VnYjJchZp2fNX4UqdwjW-23">
          <mxGeometry relative="1" as="geometry" />
        </mxCell>
        <mxCell id="VnYjJchZp2fNX4UqdwjW-20" value="Οθόνη Δημιουργίας εικονικής ξεναγήσης" style="shape=umlBoundary;whiteSpace=wrap;html=1;" vertex="1" parent="1">
          <mxGeometry x="323.66" y="210" width="100" height="80" as="geometry" />
        </mxCell>
        <mxCell id="VnYjJchZp2fNX4UqdwjW-21" style="rounded=0;orthogonalLoop=1;jettySize=auto;html=1;entryX=0;entryY=0.5;entryDx=0;entryDy=0;" edge="1" parent="1" source="VnYjJchZp2fNX4UqdwjW-23" target="VnYjJchZp2fNX4UqdwjW-24">
          <mxGeometry relative="1" as="geometry">
            <mxPoint x="571.66" y="294" as="targetPoint" />
          </mxGeometry>
        </mxCell>
        <mxCell id="rW0NodvPI0-UB6yzDcpD-14" style="edgeStyle=orthogonalEdgeStyle;rounded=0;orthogonalLoop=1;jettySize=auto;html=1;entryX=0.424;entryY=0.089;entryDx=0;entryDy=0;entryPerimeter=0;" edge="1" parent="1" source="VnYjJchZp2fNX4UqdwjW-23" target="VnYjJchZp2fNX4UqdwjW-26">
          <mxGeometry relative="1" as="geometry" />
        </mxCell>
        <mxCell id="VnYjJchZp2fNX4UqdwjW-23" value="Φόρτωσε" style="ellipse;shape=umlControl;whiteSpace=wrap;html=1;" vertex="1" parent="1">
          <mxGeometry x="473.66" y="210" width="70" height="80" as="geometry" />
        </mxCell>
        <mxCell id="VnYjJchZp2fNX4UqdwjW-24" value="Tags" style="ellipse;shape=umlEntity;whiteSpace=wrap;html=1;" vertex="1" parent="1">
          <mxGeometry x="588.81" y="219.5" width="69.28" height="61" as="geometry" />
        </mxCell>
        <mxCell id="VnYjJchZp2fNX4UqdwjW-25" style="edgeStyle=orthogonalEdgeStyle;rounded=0;orthogonalLoop=1;jettySize=auto;html=1;" edge="1" parent="1" source="VnYjJchZp2fNX4UqdwjW-26" target="VnYjJchZp2fNX4UqdwjW-28">
          <mxGeometry relative="1" as="geometry" />
        </mxCell>
        <mxCell id="VnYjJchZp2fNX4UqdwjW-26" value="Εμφάνισε" style="ellipse;shape=umlControl;whiteSpace=wrap;html=1;" vertex="1" parent="1">
          <mxGeometry x="478.66" y="430" width="70" height="80" as="geometry" />
        </mxCell>
        <mxCell id="i6v8ZcXv0K1cD3QodSbd-4" style="edgeStyle=orthogonalEdgeStyle;rounded=0;orthogonalLoop=1;jettySize=auto;html=1;entryX=0.378;entryY=0.1;entryDx=0;entryDy=0;entryPerimeter=0;" edge="1" parent="1" source="VnYjJchZp2fNX4UqdwjW-28" target="FwTAm6j0BXuWH0WXuKVa-4">
          <mxGeometry relative="1" as="geometry">
            <mxPoint x="373.6965600000001" y="549.9900000000002" as="targetPoint" />
          </mxGeometry>
        </mxCell>
        <mxCell id="VnYjJchZp2fNX4UqdwjW-28" value="Οθόνη επιλογής tags" style="shape=umlBoundary;whiteSpace=wrap;html=1;" vertex="1" parent="1">
          <mxGeometry x="323.66" y="430" width="100" height="80" as="geometry" />
        </mxCell>
        <mxCell id="VnYjJchZp2fNX4UqdwjW-29" style="edgeStyle=orthogonalEdgeStyle;rounded=0;orthogonalLoop=1;jettySize=auto;html=1;" edge="1" parent="1" source="VnYjJchZp2fNX4UqdwjW-30" target="VnYjJchZp2fNX4UqdwjW-81">
          <mxGeometry relative="1" as="geometry" />
        </mxCell>
        <mxCell id="VnYjJchZp2fNX4UqdwjW-30" value="Οθόνη επιλογής Templates" style="shape=umlBoundary;whiteSpace=wrap;html=1;" vertex="1" parent="1">
          <mxGeometry x="326.6600000000001" y="1020" width="100" height="80" as="geometry" />
        </mxCell>
        <mxCell id="VnYjJchZp2fNX4UqdwjW-31" style="edgeStyle=orthogonalEdgeStyle;rounded=0;orthogonalLoop=1;jettySize=auto;html=1;entryX=0.58;entryY=0.025;entryDx=0;entryDy=0;entryPerimeter=0;" edge="1" parent="1" source="VnYjJchZp2fNX4UqdwjW-32" target="VnYjJchZp2fNX4UqdwjW-30">
          <mxGeometry relative="1" as="geometry" />
        </mxCell>
        <mxCell id="VnYjJchZp2fNX4UqdwjW-32" value="Εμφάνισε" style="ellipse;shape=umlControl;whiteSpace=wrap;html=1;" vertex="1" parent="1">
          <mxGeometry x="349.7000000000001" y="920" width="70" height="80" as="geometry" />
        </mxCell>
        <mxCell id="Sj3-l9j2Qv-C6Wem7DR2-25" style="edgeStyle=orthogonalEdgeStyle;rounded=0;orthogonalLoop=1;jettySize=auto;html=1;entryX=-0.001;entryY=0.5;entryDx=0;entryDy=0;entryPerimeter=0;" edge="1" parent="1" source="VnYjJchZp2fNX4UqdwjW-48" target="VnYjJchZp2fNX4UqdwjW-59">
          <mxGeometry relative="1" as="geometry" />
        </mxCell>
        <mxCell id="Sj3-l9j2Qv-C6Wem7DR2-26" value="Οχι" style="edgeLabel;html=1;align=center;verticalAlign=middle;resizable=0;points=[];" vertex="1" connectable="0" parent="Sj3-l9j2Qv-C6Wem7DR2-25">
          <mxGeometry x="-0.1522" relative="1" as="geometry">
            <mxPoint y="-10" as="offset" />
          </mxGeometry>
        </mxCell>
        <mxCell id="f7n6yNjuAvVl9SJuPKlu-3" style="rounded=0;orthogonalLoop=1;jettySize=auto;html=1;entryX=-0.025;entryY=0.386;entryDx=0;entryDy=0;entryPerimeter=0;" edge="1" parent="1" source="VnYjJchZp2fNX4UqdwjW-48" target="f7n6yNjuAvVl9SJuPKlu-1">
          <mxGeometry relative="1" as="geometry" />
        </mxCell>
        <mxCell id="VnYjJchZp2fNX4UqdwjW-48" value="Μέγεθος πολυμέσων επιτρεπτό ?" style="ellipse;shape=umlControl;whiteSpace=wrap;html=1;" vertex="1" parent="1">
          <mxGeometry x="500.00000000000006" y="1250" width="70" height="80" as="geometry" />
        </mxCell>
        <mxCell id="VnYjJchZp2fNX4UqdwjW-58" style="edgeStyle=orthogonalEdgeStyle;rounded=0;orthogonalLoop=1;jettySize=auto;html=1;entryX=1.008;entryY=0.511;entryDx=0;entryDy=0;entryPerimeter=0;fillColor=#f8cecc;strokeColor=#b85450;" edge="1" parent="1" source="VnYjJchZp2fNX4UqdwjW-59" target="pidRuyIrLAa__0Ykbe6G-2">
          <mxGeometry relative="1" as="geometry">
            <mxPoint x="698" y="1190.7199999999998" as="targetPoint" />
            <Array as="points">
              <mxPoint x="700" y="611" />
            </Array>
          </mxGeometry>
        </mxCell>
        <mxCell id="Sj3-l9j2Qv-C6Wem7DR2-27" style="rounded=0;orthogonalLoop=1;jettySize=auto;html=1;fillColor=#f8cecc;strokeColor=#b85450;" edge="1" parent="1" source="VnYjJchZp2fNX4UqdwjW-59" target="Sj3-l9j2Qv-C6Wem7DR2-19">
          <mxGeometry relative="1" as="geometry" />
        </mxCell>
        <mxCell id="VnYjJchZp2fNX4UqdwjW-59" value="Εμφάνισε&amp;nbsp;" style="ellipse;shape=umlControl;whiteSpace=wrap;html=1;fillColor=#f8cecc;strokeColor=#b85450;" vertex="1" parent="1">
          <mxGeometry x="660.73" y="1250" width="76" height="80" as="geometry" />
        </mxCell>
        <mxCell id="Sj3-l9j2Qv-C6Wem7DR2-38" style="edgeStyle=orthogonalEdgeStyle;rounded=0;orthogonalLoop=1;jettySize=auto;html=1;entryX=-0.024;entryY=0.5;entryDx=0;entryDy=0;entryPerimeter=0;" edge="1" parent="1" source="VnYjJchZp2fNX4UqdwjW-67" target="VnYjJchZp2fNX4UqdwjW-69">
          <mxGeometry relative="1" as="geometry" />
        </mxCell>
        <mxCell id="Sj3-l9j2Qv-C6Wem7DR2-41" value="Ναι" style="edgeLabel;html=1;align=center;verticalAlign=middle;resizable=0;points=[];" vertex="1" connectable="0" parent="Sj3-l9j2Qv-C6Wem7DR2-38">
          <mxGeometry x="0.6006" y="-2" relative="1" as="geometry">
            <mxPoint x="-19" y="-12" as="offset" />
          </mxGeometry>
        </mxCell>
        <mxCell id="Sj3-l9j2Qv-C6Wem7DR2-44" style="edgeStyle=orthogonalEdgeStyle;rounded=0;orthogonalLoop=1;jettySize=auto;html=1;entryX=0.524;entryY=0.996;entryDx=0;entryDy=0;entryPerimeter=0;fillColor=#f8cecc;strokeColor=#b85450;" edge="1" parent="1" source="VnYjJchZp2fNX4UqdwjW-67" target="Sj3-l9j2Qv-C6Wem7DR2-42">
          <mxGeometry relative="1" as="geometry">
            <Array as="points">
              <mxPoint x="380" y="1780" />
              <mxPoint x="780" y="1780" />
            </Array>
          </mxGeometry>
        </mxCell>
        <mxCell id="Sj3-l9j2Qv-C6Wem7DR2-45" value="Οχι" style="edgeLabel;html=1;align=center;verticalAlign=middle;resizable=0;points=[];" vertex="1" connectable="0" parent="Sj3-l9j2Qv-C6Wem7DR2-44">
          <mxGeometry x="-0.8497" y="1" relative="1" as="geometry">
            <mxPoint x="9" y="-29" as="offset" />
          </mxGeometry>
        </mxCell>
        <mxCell id="VnYjJchZp2fNX4UqdwjW-67" value="Επιβεβαιωσε ο χειριστής;" style="ellipse;shape=umlControl;whiteSpace=wrap;html=1;fontFamily=Helvetica;fontSize=11;fontColor=default;" vertex="1" parent="1">
          <mxGeometry x="344.70000000000005" y="1560" width="70" height="80" as="geometry" />
        </mxCell>
        <mxCell id="VnYjJchZp2fNX4UqdwjW-68" style="edgeStyle=orthogonalEdgeStyle;rounded=0;orthogonalLoop=1;jettySize=auto;html=1;" edge="1" parent="1" source="VnYjJchZp2fNX4UqdwjW-69" target="VnYjJchZp2fNX4UqdwjW-75">
          <mxGeometry relative="1" as="geometry" />
        </mxCell>
        <mxCell id="VnYjJchZp2fNX4UqdwjW-69" value="καταχώρησε" style="ellipse;shape=umlControl;whiteSpace=wrap;html=1;" vertex="1" parent="1">
          <mxGeometry x="471.65999999999997" y="1560" width="70" height="80" as="geometry" />
        </mxCell>
        <mxCell id="Sj3-l9j2Qv-C6Wem7DR2-43" style="edgeStyle=orthogonalEdgeStyle;rounded=0;orthogonalLoop=1;jettySize=auto;html=1;exitX=1.015;exitY=0.517;exitDx=0;exitDy=0;exitPerimeter=0;" edge="1" parent="1">
          <mxGeometry relative="1" as="geometry">
            <mxPoint x="542.7099999999999" y="1601.3600000000001" as="sourcePoint" />
            <mxPoint x="740" y="1601" as="targetPoint" />
            <Array as="points">
              <mxPoint x="642" y="1601" />
              <mxPoint x="745" y="1601" />
            </Array>
          </mxGeometry>
        </mxCell>
        <mxCell id="VnYjJchZp2fNX4UqdwjW-75" value="Εικονική ξενάγηση" style="ellipse;shape=umlEntity;whiteSpace=wrap;html=1;" vertex="1" parent="1">
          <mxGeometry x="466.66" y="1680" width="80" height="80" as="geometry" />
        </mxCell>
        <mxCell id="Sj3-l9j2Qv-C6Wem7DR2-10" style="edgeStyle=orthogonalEdgeStyle;rounded=0;orthogonalLoop=1;jettySize=auto;html=1;" edge="1" parent="1" source="VnYjJchZp2fNX4UqdwjW-81" target="Sj3-l9j2Qv-C6Wem7DR2-5">
          <mxGeometry relative="1" as="geometry">
            <Array as="points">
              <mxPoint x="582.61" y="1060" />
            </Array>
          </mxGeometry>
        </mxCell>
        <mxCell id="Sj3-l9j2Qv-C6Wem7DR2-12" style="edgeStyle=orthogonalEdgeStyle;rounded=0;orthogonalLoop=1;jettySize=auto;html=1;entryX=0.484;entryY=0.031;entryDx=0;entryDy=0;entryPerimeter=0;" edge="1" parent="1" source="VnYjJchZp2fNX4UqdwjW-81" target="Sj3-l9j2Qv-C6Wem7DR2-11">
          <mxGeometry relative="1" as="geometry">
            <mxPoint x="506.6600000000002" y="1130" as="targetPoint" />
          </mxGeometry>
        </mxCell>
        <mxCell id="VnYjJchZp2fNX4UqdwjW-81" value="εφάρμοσε" style="ellipse;shape=umlControl;whiteSpace=wrap;html=1;" vertex="1" parent="1">
          <mxGeometry x="471.66" y="1020" width="70" height="80" as="geometry" />
        </mxCell>
        <mxCell id="Sj3-l9j2Qv-C6Wem7DR2-37" style="edgeStyle=orthogonalEdgeStyle;rounded=0;orthogonalLoop=1;jettySize=auto;html=1;" edge="1" parent="1" source="VnYjJchZp2fNX4UqdwjW-86" target="VnYjJchZp2fNX4UqdwjW-67">
          <mxGeometry relative="1" as="geometry" />
        </mxCell>
        <mxCell id="VnYjJchZp2fNX4UqdwjW-86" value="Πεδίο επιβεβαίωσης ανάρτησης" style="shape=umlBoundary;whiteSpace=wrap;html=1;" vertex="1" parent="1">
          <mxGeometry x="329.7" y="1440" width="100" height="80" as="geometry" />
        </mxCell>
        <mxCell id="75kYliIMo5L1Hd-X6o-r-1" value="&lt;b&gt;&lt;font style=&quot;font-size: 19px;&quot;&gt;Post Virtual Tour&lt;/font&gt;&lt;/b&gt;" style="text;html=1;align=center;verticalAlign=middle;resizable=0;points=[];autosize=1;strokeColor=none;fillColor=none;" vertex="1" parent="1">
          <mxGeometry width="170" height="40" as="geometry" />
        </mxCell>
        <mxCell id="rW0NodvPI0-UB6yzDcpD-1" value="Επιλέγει δημιουργία&lt;br&gt;&amp;nbsp;νέας εικονικής &lt;br&gt;ξενάγησης" style="edgeLabel;html=1;align=center;verticalAlign=middle;resizable=0;points=[];" vertex="1" connectable="0" parent="1">
          <mxGeometry x="242.6069563710378" y="139.99947509897666" as="geometry" />
        </mxCell>
        <mxCell id="rW0NodvPI0-UB6yzDcpD-2" style="edgeStyle=orthogonalEdgeStyle;rounded=0;orthogonalLoop=1;jettySize=auto;html=1;entryX=-0.043;entryY=0.525;entryDx=0;entryDy=0;entryPerimeter=0;" edge="1" parent="1" source="rW0NodvPI0-UB6yzDcpD-3" target="rW0NodvPI0-UB6yzDcpD-4">
          <mxGeometry relative="1" as="geometry" />
        </mxCell>
        <mxCell id="rW0NodvPI0-UB6yzDcpD-3" value="Οθόνη Ιστορικού Events" style="shape=umlBoundary;whiteSpace=wrap;html=1;" vertex="1" parent="1">
          <mxGeometry x="324.61" y="82" width="100" height="80" as="geometry" />
        </mxCell>
        <mxCell id="rW0NodvPI0-UB6yzDcpD-8" style="rounded=0;orthogonalLoop=1;jettySize=auto;html=1;entryX=0.847;entryY=0.093;entryDx=0;entryDy=0;entryPerimeter=0;" edge="1" parent="1" source="rW0NodvPI0-UB6yzDcpD-4" target="VnYjJchZp2fNX4UqdwjW-20">
          <mxGeometry relative="1" as="geometry" />
        </mxCell>
        <mxCell id="rW0NodvPI0-UB6yzDcpD-4" value="Εμφάνισε" style="ellipse;shape=umlControl;whiteSpace=wrap;html=1;" vertex="1" parent="1">
          <mxGeometry x="474.61" y="80" width="70" height="80" as="geometry" />
        </mxCell>
        <mxCell id="FwTAm6j0BXuWH0WXuKVa-2" style="rounded=0;orthogonalLoop=1;jettySize=auto;html=1;strokeColor=#b85450;strokeWidth=2;fillColor=#f8cecc;" edge="1" parent="1" source="FwTAm6j0BXuWH0WXuKVa-4" target="FwTAm6j0BXuWH0WXuKVa-5">
          <mxGeometry relative="1" as="geometry" />
        </mxCell>
        <mxCell id="FwTAm6j0BXuWH0WXuKVa-3" value="Όχι" style="edgeLabel;html=1;align=center;verticalAlign=middle;resizable=0;points=[];fontSize=11;fontFamily=Helvetica;fontColor=default;" vertex="1" connectable="0" parent="FwTAm6j0BXuWH0WXuKVa-2">
          <mxGeometry x="-0.24" y="-2" relative="1" as="geometry">
            <mxPoint y="-22" as="offset" />
          </mxGeometry>
        </mxCell>
        <mxCell id="Sj3-l9j2Qv-C6Wem7DR2-4" style="edgeStyle=orthogonalEdgeStyle;rounded=0;orthogonalLoop=1;jettySize=auto;html=1;entryX=0.493;entryY=0.021;entryDx=0;entryDy=0;entryPerimeter=0;" edge="1" parent="1" source="FwTAm6j0BXuWH0WXuKVa-4" target="Sj3-l9j2Qv-C6Wem7DR2-3">
          <mxGeometry relative="1" as="geometry" />
        </mxCell>
        <mxCell id="FwTAm6j0BXuWH0WXuKVa-4" value="Έλεγχος ορθών συμπληρωμένων πεδίων" style="ellipse;shape=umlControl;whiteSpace=wrap;html=1;" vertex="1" parent="1">
          <mxGeometry x="339.70000000000005" y="680" width="90" height="100" as="geometry" />
        </mxCell>
        <mxCell id="pidRuyIrLAa__0Ykbe6G-3" style="edgeStyle=orthogonalEdgeStyle;rounded=0;orthogonalLoop=1;jettySize=auto;html=1;entryX=0.608;entryY=1.033;entryDx=0;entryDy=0;entryPerimeter=0;fillColor=#f8cecc;strokeColor=#b85450;" edge="1" parent="1" source="FwTAm6j0BXuWH0WXuKVa-5" target="pidRuyIrLAa__0Ykbe6G-2">
          <mxGeometry relative="1" as="geometry" />
        </mxCell>
        <mxCell id="FwTAm6j0BXuWH0WXuKVa-5" value="Εμφάνισε&amp;nbsp;" style="ellipse;shape=umlControl;whiteSpace=wrap;html=1;fillColor=#f8cecc;strokeColor=#b85450;" vertex="1" parent="1">
          <mxGeometry x="548.66" y="685" width="72.76" height="90" as="geometry" />
        </mxCell>
        <mxCell id="pidRuyIrLAa__0Ykbe6G-2" value="Μήνυμα λάθους" style="shape=umlBoundary;whiteSpace=wrap;html=1;fillColor=#f8cecc;strokeColor=#b85450;" vertex="1" parent="1">
          <mxGeometry x="524.84" y="570" width="100" height="80" as="geometry" />
        </mxCell>
        <mxCell id="Sj3-l9j2Qv-C6Wem7DR2-1" style="edgeStyle=orthogonalEdgeStyle;rounded=0;orthogonalLoop=1;jettySize=auto;html=1;curved=1;fillColor=#f8cecc;strokeColor=#b85450;strokeWidth=2;entryX=0.897;entryY=0.852;entryDx=0;entryDy=0;entryPerimeter=0;exitX=0.203;exitY=0.208;exitDx=0;exitDy=0;exitPerimeter=0;" edge="1" parent="1" source="FwTAm6j0BXuWH0WXuKVa-5" target="VnYjJchZp2fNX4UqdwjW-20">
          <mxGeometry relative="1" as="geometry">
            <mxPoint x="421.66" y="284" as="targetPoint" />
            <mxPoint x="478.90000000000003" y="606" as="sourcePoint" />
            <Array as="points">
              <mxPoint x="563.61" y="690" />
              <mxPoint x="471.61" y="690" />
              <mxPoint x="471.61" y="278" />
            </Array>
          </mxGeometry>
        </mxCell>
        <mxCell id="Sj3-l9j2Qv-C6Wem7DR2-6" style="edgeStyle=orthogonalEdgeStyle;rounded=0;orthogonalLoop=1;jettySize=auto;html=1;entryX=0;entryY=0.5;entryDx=0;entryDy=0;" edge="1" parent="1" source="Sj3-l9j2Qv-C6Wem7DR2-3" target="Sj3-l9j2Qv-C6Wem7DR2-5">
          <mxGeometry relative="1" as="geometry" />
        </mxCell>
        <mxCell id="Sj3-l9j2Qv-C6Wem7DR2-7" style="edgeStyle=orthogonalEdgeStyle;rounded=0;orthogonalLoop=1;jettySize=auto;html=1;entryX=0.549;entryY=-0.029;entryDx=0;entryDy=0;entryPerimeter=0;" edge="1" parent="1">
          <mxGeometry relative="1" as="geometry">
            <mxPoint x="383.7" y="890.0000000000002" as="sourcePoint" />
            <mxPoint x="387.13000000000017" y="917.6800000000001" as="targetPoint" />
          </mxGeometry>
        </mxCell>
        <mxCell id="Sj3-l9j2Qv-C6Wem7DR2-3" value="Φόρτωσε" style="ellipse;shape=umlControl;whiteSpace=wrap;html=1;" vertex="1" parent="1">
          <mxGeometry x="349.70000000000005" y="810.0000000000001" width="70" height="80" as="geometry" />
        </mxCell>
        <mxCell id="Sj3-l9j2Qv-C6Wem7DR2-5" value="Template" style="ellipse;shape=umlEntity;whiteSpace=wrap;html=1;" vertex="1" parent="1">
          <mxGeometry x="543.66" y="810" width="80" height="80" as="geometry" />
        </mxCell>
        <mxCell id="Sj3-l9j2Qv-C6Wem7DR2-22" style="edgeStyle=orthogonalEdgeStyle;rounded=0;orthogonalLoop=1;jettySize=auto;html=1;entryX=1.002;entryY=0.493;entryDx=0;entryDy=0;entryPerimeter=0;" edge="1" parent="1" source="Sj3-l9j2Qv-C6Wem7DR2-11" target="Sj3-l9j2Qv-C6Wem7DR2-19">
          <mxGeometry relative="1" as="geometry" />
        </mxCell>
        <mxCell id="Sj3-l9j2Qv-C6Wem7DR2-11" value="Εμφάνισε" style="ellipse;shape=umlControl;whiteSpace=wrap;html=1;" vertex="1" parent="1">
          <mxGeometry x="473.66" y="1130" width="70" height="80" as="geometry" />
        </mxCell>
        <mxCell id="Sj3-l9j2Qv-C6Wem7DR2-15" value="&lt;b&gt;Χειριστής&lt;/b&gt;" style="text;html=1;align=center;verticalAlign=middle;resizable=0;points=[];autosize=1;strokeColor=none;fillColor=none;" vertex="1" parent="1">
          <mxGeometry x="67.61" y="189.5" width="80" height="30" as="geometry" />
        </mxCell>
        <mxCell id="Sj3-l9j2Qv-C6Wem7DR2-28" style="edgeStyle=orthogonalEdgeStyle;rounded=0;orthogonalLoop=1;jettySize=auto;html=1;entryX=-0.042;entryY=0.552;entryDx=0;entryDy=0;entryPerimeter=0;" edge="1" parent="1" source="Sj3-l9j2Qv-C6Wem7DR2-19" target="VnYjJchZp2fNX4UqdwjW-48">
          <mxGeometry relative="1" as="geometry">
            <mxPoint x="431.35000000000014" y="1294.4" as="targetPoint" />
            <Array as="points">
              <mxPoint x="380" y="1294" />
            </Array>
          </mxGeometry>
        </mxCell>
        <mxCell id="Sj3-l9j2Qv-C6Wem7DR2-19" value="Οθόνη επεξεργασίας εικονικής ξενάγησης" style="shape=umlBoundary;whiteSpace=wrap;html=1;" vertex="1" parent="1">
          <mxGeometry x="329.69000000000005" y="1130" width="100" height="80" as="geometry" />
        </mxCell>
        <mxCell id="Sj3-l9j2Qv-C6Wem7DR2-36" style="edgeStyle=orthogonalEdgeStyle;rounded=0;orthogonalLoop=1;jettySize=auto;html=1;entryX=1.005;entryY=0.549;entryDx=0;entryDy=0;entryPerimeter=0;exitX=0.565;exitY=1.011;exitDx=0;exitDy=0;exitPerimeter=0;" edge="1" parent="1" source="Sj3-l9j2Qv-C6Wem7DR2-11" target="VnYjJchZp2fNX4UqdwjW-86">
          <mxGeometry relative="1" as="geometry">
            <mxPoint x="535" y="1440" as="sourcePoint" />
            <Array as="points">
              <mxPoint x="470" y="1211" />
              <mxPoint x="470" y="1484" />
            </Array>
          </mxGeometry>
        </mxCell>
        <mxCell id="Sj3-l9j2Qv-C6Wem7DR2-46" style="edgeStyle=orthogonalEdgeStyle;rounded=0;orthogonalLoop=1;jettySize=auto;html=1;entryX=0.572;entryY=-0.016;entryDx=0;entryDy=0;entryPerimeter=0;" edge="1" parent="1" source="Sj3-l9j2Qv-C6Wem7DR2-42" target="rW0NodvPI0-UB6yzDcpD-3">
          <mxGeometry relative="1" as="geometry">
            <Array as="points">
              <mxPoint x="778" y="40" />
              <mxPoint x="382" y="40" />
            </Array>
          </mxGeometry>
        </mxCell>
        <mxCell id="Sj3-l9j2Qv-C6Wem7DR2-42" value="Εμφάνισε" style="ellipse;shape=umlControl;whiteSpace=wrap;html=1;" vertex="1" parent="1">
          <mxGeometry x="743" y="1560" width="70" height="80" as="geometry" />
        </mxCell>
        <mxCell id="f7n6yNjuAvVl9SJuPKlu-4" style="edgeStyle=orthogonalEdgeStyle;rounded=0;orthogonalLoop=1;jettySize=auto;html=1;entryX=0.5;entryY=0;entryDx=0;entryDy=0;" edge="1" parent="1" source="f7n6yNjuAvVl9SJuPKlu-1" target="f7n6yNjuAvVl9SJuPKlu-2">
          <mxGeometry relative="1" as="geometry" />
        </mxCell>
        <mxCell id="f7n6yNjuAvVl9SJuPKlu-1" value="αποθήκευσε" style="ellipse;shape=umlControl;whiteSpace=wrap;html=1;" vertex="1" parent="1">
          <mxGeometry x="658.0899999999999" y="1360" width="70" height="80" as="geometry" />
        </mxCell>
        <mxCell id="f7n6yNjuAvVl9SJuPKlu-2" value="Πολυμέσα/Αρχεία" style="ellipse;shape=umlEntity;whiteSpace=wrap;html=1;" vertex="1" parent="1">
          <mxGeometry x="653.09" y="1470" width="80" height="80" as="geometry" />
        </mxCell>
        <mxCell id="f7n6yNjuAvVl9SJuPKlu-5" value="Ναι" style="edgeLabel;html=1;align=center;verticalAlign=middle;resizable=0;points=[];" vertex="1" connectable="0" parent="1">
          <mxGeometry x="459.91052631578964" y="1610" as="geometry">
            <mxPoint x="162" y="-268" as="offset" />
          </mxGeometry>
        </mxCell>
      </root>
    </mxGraphModel>
  </diagram>
</mxfile>
